<?xml version="1.0" encoding="utf-8" ?><svg xmlns="http://www.w3.org/2000/svg" xmlns:xlink="http://www.w3.org/1999/xlink" width="1024" height="1024" viewBox="0 0 1024 1024"><path fill="#F3CF65" d="M0 0L1024 0L1024 1024L0 1024L0 0Z"/><path fill="#2B3131" d="M495.898 227.222C511.153 227.468 519.137 232.643 529.371 243.753C531.939 246.541 535.623 250.113 539.28 251.286C552.023 254.725 563.5 243.147 574.48 238.132C584.683 233.473 595.701 233.887 600.715 245.539C603.62 252.289 599.867 260.509 596.934 266.845C605.477 267.782 614.652 268.703 621.982 273.761C632.818 281.239 632.631 294.951 626.439 305.497C621.902 313.226 615.451 320.799 610.019 328.246C597.969 344.768 584.73 360.82 572.984 377.578C578.278 387.103 578.507 395.956 572.188 405.02C578.929 410.649 585.582 416.384 592.143 422.221C656.602 480.557 725.39 581.76 731.442 671.819C733.343 700.102 726.558 734.207 706.739 755.606C679.826 784.664 638.113 789.79 600.718 792.838C582.307 794.32 563.86 795.339 545.397 795.893C502.198 796.978 458.971 795.833 415.889 792.464C380.933 789.692 335.198 782.823 312.181 754.313C273.593 706.516 290.078 634.083 312.396 583.004C334.199 533.103 363.504 489.737 400.256 449.982C415.848 433.116 431.185 419.544 448.493 405.074C446.926 402.796 445.724 400.287 444.93 397.639C442.629 389.937 444.395 384.275 447.947 377.622C430.209 353.411 410.484 329.884 393.309 305.24C388.745 298.69 388.819 287.293 394.248 281.167C403.629 270.581 424.216 272.683 437.666 271.474C439.055 247.78 474.472 228.565 495.898 227.222Z"/><path fill="#3F7F54" d="M462.102 412.841C465.174 412.367 488.945 413.045 493.881 413.002L506.84 412.959C523.617 412.757 541.053 413.28 557.711 412.785C568.42 419.898 580.323 431.223 589.859 440.346C646.684 494.708 695.044 566.363 712.863 643.693C719.842 673.981 719.182 711.827 701.666 738.337C680.057 770.666 635.526 775.085 600.126 778.316C554.903 782.444 509.124 782.22 463.778 780.665C436.286 779.658 406.325 777.993 379.268 773.093C365.851 770.664 349.443 765.195 338.167 757.688C319.797 745.457 309.84 726.3 305.948 704.917C294.146 640.075 333.321 563.519 368.777 512.07C393.454 476.497 422.968 444.535 456.467 417.107C458.242 415.658 460.253 414.219 462.102 412.841Z"/><path fill="#48935F" d="M493.881 413.002L506.84 412.959C507.199 416.381 508.903 423.59 509.663 427.275C511.33 435.374 512.949 443.482 514.52 451.6C515.072 454.336 516.425 458.448 516.31 460.84L515.878 460.702C514.363 456.247 511.697 451.726 509.758 447.472C504.957 436.938 497.456 424.591 493.242 414.004L493.881 413.002Z"/><path fill="#48935F" d="M462.102 412.841C465.027 413.199 466.888 413.191 469.79 413.188C459.495 425.475 450.062 439.195 440.415 452.041C438.557 454.515 436.78 456.915 435.188 459.576L434.719 459.574C437.735 451.447 456.242 421.385 456.467 417.107C458.242 415.658 460.253 414.219 462.102 412.841Z"/><path fill="#6ABC7C" d="M501.091 472.976C559.933 468.405 611.313 512.459 615.777 571.309C620.241 630.159 576.093 681.459 517.235 685.815C458.528 690.16 407.389 646.151 402.937 587.452C398.485 528.754 442.401 477.535 501.091 472.976Z"/><path fill="#F3CF65" d="M494.668 486.572L504.549 486.636L504.874 500.07L513.611 500L513.669 486.701L523.509 486.95L523.479 501.86C537.801 507.53 543.765 515.299 545.798 530.322C541.346 530.921 536.812 531.75 532.375 532.507C531.399 524.895 529.323 521.027 523.339 516.247L523.441 559.458C527.414 560.693 531.296 562.206 535.057 563.985C545.567 569.017 554.662 576.498 558.412 587.765C563.395 602.738 559.953 619.779 548.415 630.76C540.876 637.934 532.652 640.671 523.129 643.881C523.62 648.654 523.386 656.033 523.374 661.006L513.629 660.967L513.608 652.582L513.698 644.519L504.49 644.569C504.645 650.166 504.523 655.437 504.401 661.027L494.907 660.94C494.839 655.168 494.92 649.236 494.935 643.449C472.556 638.059 459.177 625.359 457.832 601.616C462.89 601.434 467.7 601.06 472.883 600.926C474.708 616.988 479.769 623.136 494.748 628.663C495.355 608.727 495.006 587.445 494.94 567.45L494.031 567.048C490.367 565.411 487.073 563.849 483.613 561.833C464.434 550.657 464.22 523.497 480.433 509.658C485.086 505.686 488.858 504.292 494.599 502.229L494.668 486.572Z"/><path fill="#6ABC7C" d="M523.142 576.278C544.528 583.052 553.16 601.301 538.033 620.181C532.989 624.996 529.68 626.371 523.259 628.614C523.718 611.879 523.101 593.3 523.142 576.278Z"/><path fill="#6ABC7C" d="M504.546 570.405C507.503 571.1 510.76 572.257 513.687 573.216C513.148 591.658 513.652 611.751 513.501 630.397L504.727 630.23C504.183 610.797 504.76 590.054 504.546 570.405Z"/><path fill="#6ABC7C" d="M507.991 513.667L513.612 513.916C514.086 523.854 513.488 534.185 513.729 544.163C513.813 547.593 513.786 551.519 513.374 554.901C512.038 555.672 511.973 555.244 509.925 554.745C508.414 554.161 506.465 553.658 504.87 553.2C504.581 541.105 504.434 526.618 504.801 514.571C505.926 513.559 506.133 513.871 507.991 513.667Z"/><path fill="#6ABC7C" d="M493.992 516.401C494.089 516.461 494.204 516.498 494.283 516.581C496.147 518.559 494.855 544.382 494.741 548.9C492.122 547.423 491.414 547.042 489.113 544.989C488.484 544.285 487.801 543.506 487.26 542.736C484.349 538.556 483.307 533.354 484.384 528.376C485.75 522.295 489.117 519.46 493.992 516.401Z"/><path fill="#48935F" d="M398.863 488.912C398.64 492.112 390.9 508.655 389.194 513.019C375.016 549.28 358.708 585.028 346.302 621.929C344.042 628.649 338.215 644.323 337.638 651.195C336.9 648.966 338.209 643.602 338.765 641.22C347.783 602.541 366.148 563.929 381.842 527.475C385.515 518.934 389.244 510.416 393.028 501.923C394.803 497.859 396.665 492.596 398.863 488.912Z"/><path fill="#3F7F54" d="M474.474 249.149C491.165 240.106 505.914 237.987 519.656 254.053C537.316 274.703 556.663 266.797 575.945 254.064C577.884 252.777 583.223 250.132 585.547 250.648C588.288 253.704 583.227 262.483 581.511 265.702C572.854 281.94 563.94 295.611 559.913 313.977C558.707 319.479 555.262 327.332 553.493 333.147C560.41 325.71 566.364 316.955 572.684 308.989C579.416 300.504 584.219 290.544 589.841 281.363C595.493 281.789 610.657 282.304 614.94 286.954C617.876 290.142 614.063 298.794 611.863 301.715C604.708 311.661 597.114 321.393 589.731 331.216L571.264 355.492C568.117 359.655 564.409 365.049 561.17 368.864C552.952 368.051 537.018 368.453 528.286 368.423C511.287 368.211 494.286 368.129 477.285 368.175C472.934 368.332 463.768 368.158 460.033 368.896C455.54 364.201 451.259 358.138 447.362 352.891C434.417 335.459 420.71 318.606 407.915 301.072C400.948 291.524 404.458 287.902 415.38 287.466C423.292 286.548 432.148 286.293 440.351 285.427C443.523 291.039 446.688 299.083 450.349 304.18C460.089 317.742 470.269 333.333 480.964 346.02C471.373 324.214 464.262 301.536 454.174 279.923C449.222 269.315 454.402 263.962 462.479 257.213C465.104 254.795 471.355 251.027 474.474 249.149Z"/><path fill="#376C48" d="M460.033 368.896C455.54 364.201 451.259 358.138 447.362 352.891C434.417 335.459 420.71 318.606 407.915 301.072C400.948 291.524 404.458 287.902 415.38 287.466C420.816 301.756 454.605 339.142 465.198 352.944C467.821 356.361 475.839 364.705 477.285 368.175C472.934 368.332 463.768 368.158 460.033 368.896Z"/><path fill="#376C48" d="M462.479 257.213C465.104 254.795 471.355 251.027 474.474 249.149C474.906 253.925 477.327 259.295 478.597 263.979C480.984 272.779 483.46 281.582 486.441 290.201C487.542 293.428 490.935 302.054 490.983 304.675L490.256 304.684C490.208 304.544 490.162 304.403 490.113 304.264C487.913 298.001 468.801 259.779 464.586 257.347C463.891 256.946 463.241 257.16 462.479 257.213Z"/><path fill="#F5B465" d="M462.892 383.049C491.155 382.445 519.715 383.329 547.998 382.981C555.321 382.891 563.851 382.422 561.745 392.719C561.201 395.377 559.991 396.55 557.784 397.956C528.799 399.297 493.836 397.78 464.325 397.883C458.1 397.904 455.289 387.778 462.892 383.049Z"/></svg>